<?xml version="1.0" standalone="no"?>
<!DOCTYPE svg PUBLIC "-//W3C//DTD SVG 20010904//EN"
 "http://www.w3.org/TR/2001/REC-SVG-20010904/DTD/svg10.dtd">
<svg version="1.0" xmlns="http://www.w3.org/2000/svg"
 width="200.000000pt" height="200.000000pt" viewBox="0 0 200.000000 200.000000"
 preserveAspectRatio="xMidYMid meet">
<metadata>
Created by potrace 1.16, written by Peter Selinger 2001-2019
</metadata>
<g transform="translate(0.000000,200.000000) scale(0.100000,-0.100000)"
fill="#000000" stroke="none">
<path d="M1380 1230 c0 -11 -4 -20 -10 -20 -5 0 -10 -13 -10 -30 0 -16 5 -30
10 -30 6 0 10 -26 10 -59 0 -64 6 -71 61 -71 24 0 29 4 29 25 0 14 -4 25 -10
25 -5 0 -10 18 -10 40 0 22 5 40 10 40 6 0 10 14 10 30 0 17 -4 30 -10 30 -5
0 -10 9 -10 20 0 16 -7 20 -35 20 -28 0 -35 -4 -35 -20z"/>
<path d="M860 1121 c0 -102 -1 -101 91 -101 l59 0 0 95 0 95 -35 0 -34 0 -4
-72 -3 -73 -2 73 -2 72 -35 0 -35 0 0 -89z"/>
<path d="M1046 1194 c-20 -19 -22 -144 -4 -162 7 -7 37 -12 68 -12 31 0 61 5
68 12 7 7 12 41 12 83 0 42 -5 76 -12 83 -18 18 -113 15 -132 -4z"/>
<path d="M1216 1194 c-18 -18 -21 -79 -5 -90 8 -4 7 -9 -2 -15 -10 -6 -11 -15
-3 -36 8 -24 15 -28 53 -31 78 -6 91 2 91 53 0 31 -5 47 -17 54 -17 10 -17 10
0 11 20 0 24 39 5 58 -18 18 -103 15 -122 -4z"/>
<path d="M1582 1198 c-7 -7 -12 -41 -12 -83 0 -42 5 -76 12 -83 16 -16 120
-16 136 0 18 18 16 143 -4 162 -19 19 -114 22 -132 4z"/>
<path d="M1750 1115 l0 -95 35 0 34 0 4 68 3 67 2 -67 2 -68 41 0 41 0 -3 85
c-5 101 -8 105 -96 105 l-63 0 0 -95z"/>
<path d="M680 860 l0 -120 75 0 75 0 0 30 c0 28 -2 30 -40 30 -33 0 -40 3 -40
20 0 16 7 20 35 20 31 0 35 3 35 25 0 22 -4 25 -35 25 -28 0 -35 4 -35 20 0
17 7 20 40 20 36 0 40 3 40 25 0 24 -2 25 -75 25 l-75 0 0 -120z"/>
<path d="M840 835 l0 -95 35 0 35 0 0 64 c0 36 5 68 10 71 6 4 10 -20 10 -64
l0 -71 35 0 35 0 0 83 c0 51 -5 88 -12 95 -7 7 -40 12 -80 12 l-68 0 0 -95z"/>
<path d="M1019 909 c-15 -29 -7 -138 12 -150 10 -6 10 -9 2 -9 -8 0 -13 -13
-13 -30 0 -30 0 -30 56 -30 92 0 94 3 94 130 l0 110 -70 0 c-61 0 -71 -3 -81
-21z"/>
<path d="M1280 835 l0 -95 40 0 39 0 4 73 3 72 2 -72 2 -73 35 0 35 0 0 83 c0
51 -5 88 -12 95 -7 7 -40 12 -80 12 l-68 0 0 -95z"/>
<path d="M1473 923 c-17 -6 -18 -154 -1 -171 7 -7 36 -12 64 -12 56 0 84 17
84 51 0 15 -7 19 -34 19 -19 0 -36 -5 -38 -12 -2 -6 -10 -8 -16 -4 -25 15 -10
26 38 26 l50 0 0 43 c0 24 -5 48 -12 55 -12 12 -110 16 -135 5z"/>
</g>
</svg>
